<?xml version="1.0" encoding="utf-8"?>
<!-- Generator: Adobe Illustrator 18.1.1, SVG Export Plug-In . SVG Version: 6.00 Build 0)  -->
<!DOCTYPE svg PUBLIC "-//W3C//DTD SVG 1.1//EN" "http://www.w3.org/Graphics/SVG/1.1/DTD/svg11.dtd" [
	<!ENTITY st0 "fill:#01A5C9;">
	<!ENTITY st1 "fill:#FFFFFF;">
]>
<svg version="1.1" xmlns="http://www.w3.org/2000/svg" xmlns:xlink="http://www.w3.org/1999/xlink" x="0px" y="0px" width="260px"
	 height="260px" viewBox="0 0 260 260" style="enable-background:new 0 0 260 260;" xml:space="preserve">
<g id="Layer_3">
	<rect style="&st0;" width="260" height="260"/>
</g>
<g id="Layer_2">
	<path style="&st1;" d="M68.5,193.4l-23.7-16.8l10.1-10.1C64.6,156.7,70,143.8,70,130c0-13.8-5.4-26.7-15.1-36.5L44.8,83.4
		l22.8-16.2l7.6,6c15.2,15.2,23.5,35.3,23.5,56.7c0,21.4-8.3,41.6-23.5,56.7L68.5,193.4z"/>
	<path style="&st1;" d="M111,223.5l-23.9-16.9l12-11.7c17.3-17.3,26.9-40.3,26.9-64.8c0-24.5-9.5-47.5-26.9-64.8l-12-11.7L110.4,37
		l9,7.9c22.7,22.7,35.2,52.9,35.2,85.1c0,32.1-12.5,62.4-35.2,85.1L111,223.5z"/>
	<path style="&st1;" d="M153.2,253.3l-24.2-17.1l14-13.3c24.8-24.8,38.5-57.8,38.5-92.9c0-35.1-13.7-68.1-38.5-92.9l-13.1-14
		l23.2-16.4l10.1,10.1C193.6,47,210.2,87.2,210.2,130c0,42.8-16.7,83-46.9,113.2L153.2,253.3z"/>
</g>
</svg>
